<svg width="21" height="20" viewBox="0 0 21 20" fill="none" xmlns="http://www.w3.org/2000/svg">
<path d="M20.8129 15.6308C20.6629 14.9304 20.1878 14.3634 19.521 14.0966L15.4035 12.4706C14.9867 12.3039 14.5116 12.4039 14.1949 12.7208L13.1697 13.738C12.8779 14.0299 12.4112 14.1133 12.0444 13.9131C9.86062 12.7041 8.13525 10.9698 6.90166 8.73515C6.71828 8.40996 6.78496 7.99305 7.05169 7.73457L8.10191 6.6923C8.10191 6.6923 8.11858 6.67562 8.11858 6.66729C8.34363 6.21703 8.37697 5.45825 8.1936 4.98298L6.75162 1.3392C6.49324 0.680489 5.91811 0.196876 5.2263 0.0467891C4.53449 -0.103298 3.80933 0.113494 3.30923 0.613784L1.76724 2.13967C1.20878 2.67331 0.87538 3.41541 0.85871 4.19919C0.783694 7.94302 2.57574 11.9203 5.75975 15.0972C8.87707 18.2156 12.7696 20 16.4453 20H16.5954C17.3789 20 18.1374 19.6832 18.6875 19.1245L20.2461 17.5486C20.7463 17.04 20.9546 16.3229 20.8129 15.6308ZM19.0626 16.3812L17.5039 17.9572C17.2622 18.199 16.9371 18.3407 16.5954 18.3407H16.4453C13.203 18.3407 9.74392 16.7314 6.935 13.9298C4.06772 11.0532 2.46738 7.51778 2.52573 4.23254C2.52573 3.89902 2.6841 3.57383 2.93415 3.31535L4.47614 1.78946C4.55949 1.70608 4.66785 1.65605 4.78454 1.65605C4.81788 1.65605 4.84289 1.65605 4.87623 1.66439C5.02626 1.69774 5.14295 1.7978 5.2013 1.93955L6.64327 5.58333C6.64327 5.58333 6.6516 5.70006 6.64327 5.7751L5.87644 6.54221C5.0846 7.326 4.90957 8.56005 5.44301 9.52727C6.83497 12.0371 8.78539 14.0049 11.2359 15.364C11.611 15.5724 12.0444 15.6808 12.4778 15.6808C13.1696 15.6808 13.8448 15.3973 14.3366 14.9054L15.1034 14.1383L18.8875 15.6391C19.0292 15.6975 19.1292 15.8142 19.1626 15.9643C19.1959 16.1144 19.1542 16.2562 19.0459 16.3646L19.0626 16.3812Z" fill="#424752"/>
</svg>
