<svg width="36" height="36" viewBox="0 0 36 36" fill="none" xmlns="http://www.w3.org/2000/svg">
<path d="M0 8C0 3.58172 3.58172 0 8 0H28C32.4183 0 36 3.58172 36 8V28C36 32.4183 32.4183 36 28 36H8C3.58172 36 0 32.4183 0 28V8Z" fill="#BC4F6A"/>
<path d="M9.18021 26.4637V27.5221C9.18021 27.7171 9.33816 27.8748 9.53298 27.8748C9.7278 27.8748 9.88576 27.7171 9.88576 27.5221V26.4637C9.88576 24.9076 11.1518 23.6415 12.708 23.6415C14.2641 23.6415 15.5302 24.9076 15.5302 26.4637V27.1693H11.2969C10.8343 27.1759 10.8326 27.8676 11.2969 27.8748C11.2969 27.8748 15.883 27.8748 15.883 27.8748C16.0778 27.8748 16.2357 27.7171 16.2357 27.5221V26.4637C16.2357 25.0086 15.3498 23.7566 14.0891 23.2181C14.7453 22.7737 15.1774 22.0224 15.1774 21.1721C15.0542 17.9028 10.3631 17.8993 10.2385 21.1721C10.2385 22.0224 10.6707 22.7737 11.3268 23.2181C10.0662 23.7566 9.18021 25.0086 9.18021 26.4637ZM10.9441 21.1721C10.9441 20.1995 11.7354 19.4082 12.708 19.4082C15.0425 19.4911 15.0419 22.8534 12.7079 22.936C11.7354 22.936 10.9441 22.1446 10.9441 21.1721ZM19.7635 26.4637V27.5221C19.7635 27.7171 19.9215 27.8748 20.1163 27.8748H24.7024C24.8972 27.8748 25.0552 27.7171 25.0552 27.5221C25.0552 27.3271 24.8972 27.1693 24.7024 27.1693H20.4691V26.4637C20.4691 24.9076 21.7351 23.6415 23.2913 23.6415C24.8474 23.6415 26.1135 24.9076 26.1135 26.4637V27.5221C26.1135 27.7171 26.2715 27.8748 26.4663 27.8748C26.6611 27.8748 26.8191 27.7171 26.8191 27.5221V26.4637C26.8191 25.0086 25.9331 23.7566 24.6724 23.2181C25.0397 22.9694 25.3344 22.6232 25.5247 22.2186C26.442 22.1572 27.1718 21.3991 27.1718 20.4665C27.1718 19.494 26.3805 18.7026 25.408 18.7026C25.0635 18.7026 24.7325 18.8063 24.4487 18.9921C24.1032 18.8079 23.7094 18.7026 23.2913 18.7026C20.8548 18.7134 19.9175 21.875 21.9102 23.2181C20.6495 23.7566 19.7635 25.0086 19.7635 26.4637ZM26.4663 20.4665C26.4663 20.9329 26.1612 21.3251 25.7416 21.4658C25.8399 20.7275 25.5628 19.9689 25.0723 19.4661C25.7383 19.2238 26.4789 19.7586 26.4663 20.4665ZM21.5274 21.1721C21.5274 20.1995 22.3187 19.4082 23.2913 19.4082C25.6258 19.4911 25.6252 22.8534 23.2913 22.936C22.3187 22.936 21.5274 22.1446 21.5274 21.1721Z" fill="white"/>
<path d="M22.2848 9.62586C21.8522 9.46164 21.5984 10.1086 22.0257 10.2822C24.9803 11.4494 26.8912 13.7407 27.1416 16.3523C25.9561 15.7623 23.912 15.7025 22.5742 16.3799C22.4243 12.3075 20.6486 9.14607 18.3524 8.8502V8.47227C18.3469 8.01461 17.6548 8.00389 17.6468 8.47229C17.6468 8.47227 17.6468 8.83239 17.6468 8.83239C12.3516 8.98661 8.02642 12.6103 8.13991 17.0285C8.17186 17.1837 8.32297 17.2799 8.47464 17.2917C8.53408 17.2836 8.59456 17.2674 8.65016 17.245C9.97474 16.3961 12.2185 16.3693 13.5906 17.2449C13.6958 17.3051 13.8252 17.3075 13.9323 17.2502C15.3314 16.504 16.6732 16.2822 17.6468 16.2416V25.4056C17.6534 25.8628 18.3436 25.8747 18.3524 25.4055C18.3524 25.4056 18.3524 16.2467 18.3524 16.2467C20.0052 16.3138 21.2592 16.8299 22.1118 17.2672C22.2097 17.3075 22.3161 17.2914 22.4086 17.2448C23.7879 16.3663 26.0266 16.3986 27.3491 17.2451C27.5394 17.3548 27.8181 17.2523 27.8593 17.0285C27.9547 13.8463 25.7448 10.9992 22.2848 9.62586ZM13.7711 16.5388C12.3693 15.7159 10.1712 15.7042 8.85877 16.3526C9.17446 13.115 12.0764 10.4575 15.8934 9.72999C14.7631 10.7588 13.8944 12.5941 13.5618 14.8736C13.5028 15.3321 14.1838 15.4348 14.2601 14.9755C15.6388 6.72047 21.5215 8.45782 21.8649 16.3653C20.9234 15.9388 19.6012 15.5278 17.9996 15.5278C16.9692 15.5278 15.4132 15.7059 13.7711 16.5388Z" fill="white"/>
</svg>
