<svg width="34" height="36" viewBox="0 0 34 36" fill="none" xmlns="http://www.w3.org/2000/svg">
<path d="M0 8C0 3.58172 3.58172 0 8 0H25.1312C29.5494 0 33.1312 3.58172 33.1312 8V27.75C33.1312 32.1683 29.5494 35.75 25.1312 35.75H8C3.58172 35.75 0 32.1683 0 27.75V8Z" fill="#1D6AFF"/>
<path d="M11.6427 26.4376H16.5813C16.9131 26.4441 17.369 26.4234 17.3205 25.9991C17.2339 25.6081 16.8908 25.7289 16.5813 25.7321C16.5813 25.7321 11.6427 25.7321 11.6427 25.7321C9.98255 25.7702 8.55924 24.2348 8.71733 22.5821C8.75416 22.0626 8.81858 21.5323 8.91435 20.9613C8.94639 20.7691 8.81686 20.5872 8.62463 20.555C8.43172 20.5217 8.25086 20.6525 8.21848 20.8445C8.11892 21.4381 8.05209 21.9901 8.01386 22.5318C7.8256 24.5771 9.58275 26.4881 11.6427 26.4376ZM8.84614 19.5226C9.0294 19.5725 9.22799 19.4616 9.2771 19.2716C9.77064 17.4023 10.5682 15.6317 11.6434 14.003H16.5767C17.4402 15.3103 18.1314 16.7172 18.6241 18.1927C18.7762 18.6282 19.4341 18.4124 19.2931 17.9691C18.8059 16.5094 18.1337 15.113 17.2968 13.8102C17.5823 13.6208 17.7486 13.2841 17.7477 12.9447C17.7477 12.5892 17.5686 12.2733 17.2964 12.0807C17.7727 11.3413 18.1037 10.5339 18.2737 9.6764C18.3197 9.46957 18.1498 9.25532 17.9372 9.2551C17.1331 9.23356 16.7346 8.9783 16.273 8.68273C15.0949 7.77352 13.1287 7.77131 11.9489 8.6828C11.4873 8.9783 11.0888 9.23356 10.2847 9.2551C10.0727 9.25598 9.90157 9.46892 9.94816 9.67641C10.1182 10.5338 10.4491 11.3412 10.9257 12.0808C10.8759 12.1159 10.8288 12.1547 10.7856 12.1979C10.3154 12.6364 10.4032 13.4717 10.9278 13.8109C9.87499 15.4496 9.08851 17.2228 8.59501 19.0914C8.5454 19.2799 8.65771 19.4728 8.84614 19.5226ZM12.3296 9.2768C13.2966 8.51304 14.9245 8.51181 15.8923 9.27686C16.2998 9.53775 16.7535 9.82832 17.4918 9.92702C17.3079 10.6247 16.9968 11.2851 16.5839 11.8865H13.2149C12.7513 11.8942 12.7513 12.5843 13.215 12.592C13.2149 12.592 16.6894 12.592 16.6894 12.592L16.7287 12.593C17.1609 12.6424 17.1284 13.3031 16.6894 13.2975C16.6894 13.2975 11.5325 13.2975 11.5325 13.2975C11.2275 13.3059 11.0592 12.9066 11.2848 12.6967C11.3761 12.5938 11.5227 12.6014 11.6372 12.5405C11.7301 12.4765 11.8039 12.3656 11.7973 12.2479C11.8108 12.1785 11.7706 12.1106 11.745 12.0479C11.2915 11.4005 10.9253 10.687 10.7302 9.92701C11.4684 9.82832 11.9221 9.53775 12.3296 9.2768ZM18.0791 19.8447C18.0791 20.15 17.8307 20.3986 17.5252 20.3986C17.3302 20.3986 17.1724 20.5565 17.1724 20.7513V21.739C17.1724 23.3083 17.694 24.8166 18.641 25.9865C19.3207 26.7982 20.1751 27.4739 21.1516 27.75C22.1278 27.4739 22.9819 26.7979 23.6616 25.9869C24.2231 25.2979 24.6461 24.4646 24.8855 23.577C24.9361 23.3889 24.8249 23.1953 24.6364 23.1447C24.4494 23.0935 24.2547 23.2048 24.2041 23.3934C23.7868 24.98 22.6537 26.415 21.1516 27.0186C19.1022 26.1836 17.865 23.9649 17.8779 21.739C17.8779 21.739 17.8779 21.0538 17.8779 21.0538C18.2893 20.9336 18.6141 20.6087 18.7343 20.1974H23.5689C23.6891 20.6089 24.0143 20.9339 24.4256 21.054V21.7378C24.4322 22.2014 25.1242 22.2011 25.1311 21.7378C25.1311 21.7378 25.1311 20.7498 25.1311 20.7498C25.134 20.5512 24.9573 20.3859 24.7601 20.3982C24.4628 20.3889 24.2241 20.1442 24.2241 19.8447C24.2241 19.6498 24.0663 19.4919 23.8713 19.4919H18.4319C18.2369 19.4919 18.0791 19.6498 18.0791 19.8447Z" fill="white"/>
<path d="M22.1154 22.0225L20.7461 23.3918L20.1863 22.8319C19.8594 22.5072 19.3622 23.003 19.6875 23.3307L20.4966 24.1401C20.6279 24.2767 20.8643 24.2768 20.9955 24.1401L22.6142 22.5213C22.9384 22.1944 22.4435 21.6972 22.1154 22.0225Z" fill="white"/>
</svg>
