<svg width="24" height="24" viewBox="0 0 24 24" fill="none" xmlns="http://www.w3.org/2000/svg">
<path d="M22.378 13.0372L19.003 11.1343C18.686 10.9552 18.313 10.9552 17.997 11.1343L14.622 13.0372C14.241 13.2522 14 13.6913 14 14.1723V14.5003C14 17.5743 15.855 20.2542 18.5 21.0002C21.145 20.2542 23 17.5753 23 14.5003V14.1723C23 13.6913 22.759 13.2522 22.378 13.0372Z" fill="#75AFFF"/>
<path d="M6.75 8C6.75 7.586 7.086 7.25 7.5 7.25H8.75V6C8.75 5.586 9.086 5.25 9.5 5.25C9.914 5.25 10.25 5.586 10.25 6V7.25H11.5C11.914 7.25 12.25 7.586 12.25 8C12.25 8.414 11.914 8.75 11.5 8.75H10.25V10C10.25 10.414 9.914 10.75 9.5 10.75C9.086 10.75 8.75 10.414 8.75 10V8.75H7.5C7.086 8.75 6.75 8.414 6.75 8ZM17.47 14.47L16 15.94L15.53 15.47C15.237 15.177 14.762 15.177 14.469 15.47C14.176 15.763 14.176 16.238 14.469 16.531L15.469 17.531C15.615 17.677 15.807 17.751 15.999 17.751C16.191 17.751 16.383 17.678 16.529 17.531L18.529 15.531C18.822 15.238 18.822 14.763 18.529 14.47C18.236 14.177 17.761 14.177 17.468 14.47H17.47ZM21.75 14.172V14.5C21.75 17.915 19.675 20.884 16.703 21.722C16.637 21.741 16.568 21.75 16.5 21.75C16.432 21.75 16.363 21.741 16.297 21.722C15.553 21.512 14.865 21.169 14.252 20.718C14.167 20.726 14.088 20.75 14 20.75H5C3.483 20.75 2.25 19.517 2.25 18V5C2.25 3.483 3.483 2.25 5 2.25H14C15.517 2.25 16.75 3.483 16.75 5V10.282C16.964 10.313 17.175 10.37 17.371 10.48L20.746 12.383C21.365 12.732 21.75 13.417 21.75 14.171V14.172ZM5 19.25H12.801C12.459 18.792 12.173 18.288 11.938 17.75H6C5.586 17.75 5.25 17.414 5.25 17C5.25 16.586 5.586 16.25 6 16.25H11.459C11.353 15.764 11.285 15.265 11.269 14.75H6C5.586 14.75 5.25 14.414 5.25 14C5.25 13.586 5.586 13.25 6 13.25H11.47C11.643 12.889 11.906 12.58 12.254 12.384L15.25 10.694V5C15.25 4.311 14.689 3.75 14 3.75H5C4.311 3.75 3.75 4.311 3.75 5V18C3.75 18.689 4.311 19.25 5 19.25ZM20.25 14.172C20.25 13.965 20.153 13.772 20.01 13.691L16.635 11.788C16.591 11.763 16.545 11.751 16.5 11.751C16.455 11.751 16.409 11.763 16.365 11.788L12.99 13.691C12.846 13.772 12.75 13.965 12.75 14.172V14.5C12.75 17.165 14.281 19.482 16.5 20.216C18.719 19.482 20.25 17.165 20.25 14.5V14.172Z" fill="#112D55"/>
</svg>
