<svg width="48" height="48" viewBox="0 0 48 48" fill="none" xmlns="http://www.w3.org/2000/svg">
<rect width="48" height="48" rx="8" fill="#F4F6FA"/>
<path fill-rule="evenodd" clip-rule="evenodd" d="M16.9766 16C16.9766 15.4477 16.5288 15 15.9766 15C15.4243 15 14.9766 15.4477 14.9766 16V29C14.9766 31.2091 16.7674 33 18.9766 33H31.9766C32.5288 33 32.9766 32.5523 32.9766 32C32.9766 31.4477 32.5288 31 31.9766 31H18.9766C17.872 31 16.9766 30.1046 16.9766 29V16ZM32.6669 17.6774C32.8476 17.6505 33.0102 17.79 33.0111 17.9727L33.0272 21.4374C33.0284 21.6944 32.7269 21.8338 32.5318 21.6664L31.547 20.8215L28.3923 23.9761C27.6113 24.7572 26.3449 24.7572 25.5639 23.9761L22.9781 21.3904L19.6852 24.6832C19.2947 25.0738 18.6615 25.0738 18.271 24.6832C17.8805 24.2927 17.8805 23.6596 18.271 23.269L21.5639 19.9761C22.3449 19.1951 23.6113 19.1951 24.3923 19.9761L26.9781 22.5619L30.0246 19.5154L29.089 18.7127C28.8939 18.5453 28.9859 18.2262 29.2401 18.1883L32.6669 17.6774Z" fill="#424752"/>
</svg>
