<svg width="24" height="24" viewBox="0 0 24 24" fill="none" xmlns="http://www.w3.org/2000/svg">
<path d="M16.8261 16H11.1721C10.5041 16 9.99507 15.348 10.2101 14.715C10.7451 13.136 12.2391 12 13.9991 12C15.7591 12 17.2531 13.136 17.7881 14.715C18.0021 15.348 17.4941 16 16.8261 16ZM16.4991 9.5C16.4991 8.119 15.3801 7 13.9991 7C12.6181 7 11.4991 8.119 11.4991 9.5C11.4991 10.881 12.6181 12 13.9991 12C15.3801 12 16.4991 10.881 16.4991 9.5Z" fill="#75AFFF"/>
<path d="M18.984 4.87463L12.984 2.57362C12.349 2.32962 11.65 2.32962 11.015 2.57362L5.015 4.87463C3.959 5.27963 3.25 6.31262 3.25 7.44263V10.2776C3.25 15.2486 6.376 19.7596 11.034 21.5066C11.345 21.6226 11.671 21.6816 11.998 21.6816C12.325 21.6816 12.655 21.6226 12.969 21.5046C17.623 19.7606 20.749 15.2486 20.749 10.2776V7.44263C20.749 6.31163 20.04 5.27963 18.984 4.87463ZM19.249 10.2776C19.249 14.6266 16.514 18.5736 12.437 20.1016C12.154 20.2076 11.843 20.2076 11.555 20.0996C7.484 18.5736 4.748 14.6256 4.748 10.2776V7.44263C4.748 6.92763 5.071 6.45963 5.55 6.27463L11.55 3.97363C11.695 3.91863 11.846 3.89063 11.998 3.89063C12.15 3.89063 12.302 3.91763 12.446 3.97363L18.446 6.27463C18.926 6.45963 19.249 6.92763 19.249 7.44263V10.2776ZM14.257 11.8286C14.867 11.2376 15.249 10.4136 15.249 9.49963C15.249 7.70763 13.791 6.24963 11.999 6.24963C10.207 6.24963 8.749 7.70763 8.749 9.49963C8.749 10.4136 9.131 11.2376 9.741 11.8286C8.711 12.3866 7.894 13.3116 7.5 14.4746C7.323 14.9956 7.408 15.5546 7.733 16.0086C8.066 16.4726 8.603 16.7496 9.171 16.7496H14.825C15.393 16.7496 15.931 16.4726 16.263 16.0086C16.589 15.5546 16.674 14.9956 16.497 14.4756C16.103 13.3126 15.286 12.3866 14.256 11.8296L14.257 11.8286ZM11.999 7.74963C12.964 7.74963 13.749 8.53463 13.749 9.49963C13.749 10.4646 12.964 11.2496 11.999 11.2496C11.034 11.2496 10.249 10.4646 10.249 9.49963C10.249 8.53463 11.034 7.74963 11.999 7.74963ZM15.045 15.1356C15.026 15.1616 14.953 15.2496 14.826 15.2496H9.172C9.045 15.2496 8.972 15.1616 8.953 15.1356C8.911 15.0766 8.9 15.0166 8.921 14.9556C9.368 13.6366 10.605 12.7496 12 12.7496C13.395 12.7496 14.632 13.6366 15.079 14.9566C15.099 15.0166 15.087 15.0766 15.045 15.1356Z" fill="#112D55"/>
</svg>
