<svg width="24" height="24" viewBox="0 0 24 24" fill="none" xmlns="http://www.w3.org/2000/svg">
<path d="M16.263 7.22225L14.294 6.08025C14.109 5.97325 13.892 5.97325 13.707 6.08025L11.738 7.22225C11.516 7.35125 11.375 7.61525 11.375 7.90325V8.10025C11.375 9.94525 12.457 11.5522 14 12.0002C15.543 11.5532 16.625 9.94525 16.625 8.10025V7.90325C16.625 7.61525 16.486 7.35125 16.263 7.22225Z" fill="#75AFFF"/>
<path d="M11.791 12.721C11.859 12.741 11.93 12.75 12 12.75C12.07 12.75 12.141 12.74 12.209 12.721C14.073 12.18 15.375 10.281 15.375 8.101V7.904C15.375 7.347 15.093 6.839 14.639 6.575L12.668 5.431C12.25 5.188 11.751 5.191 11.33 5.431L9.361 6.574C8.907 6.838 8.625 7.346 8.625 7.903V8.1C8.625 10.28 9.927 12.18 11.791 12.721ZM12 6.777L13.886 7.871L13.875 7.903V8.1C13.875 9.529 13.114 10.772 12 11.208C10.886 10.771 10.125 9.528 10.125 8.1L10.114 7.871L12 6.777ZM16.75 18C16.75 18.414 16.414 18.75 16 18.75H8C7.586 18.75 7.25 18.414 7.25 18C7.25 17.586 7.586 17.25 8 17.25H16C16.414 17.25 16.75 17.586 16.75 18ZM17 2.25H7C5.483 2.25 4.25 3.483 4.25 5V19C4.25 20.517 5.483 21.75 7 21.75H17C18.517 21.75 19.75 20.517 19.75 19V5C19.75 3.483 18.517 2.25 17 2.25ZM18.25 19C18.25 19.689 17.689 20.25 17 20.25H7C6.311 20.25 5.75 19.689 5.75 19V5C5.75 4.311 6.311 3.75 7 3.75H17C17.689 3.75 18.25 4.311 18.25 5V19ZM16.75 15C16.75 15.414 16.414 15.75 16 15.75H8C7.586 15.75 7.25 15.414 7.25 15C7.25 14.586 7.586 14.25 8 14.25H16C16.414 14.25 16.75 14.586 16.75 15Z" fill="#112D55"/>
</svg>
