<svg width="24" height="24" viewBox="0 0 24 24" fill="none" xmlns="http://www.w3.org/2000/svg">
<path d="M22.378 13.0372L19.003 11.1343C18.686 10.9552 18.313 10.9552 17.997 11.1343L14.622 13.0372C14.241 13.2522 14 13.6913 14 14.1723V14.5003C14 17.5743 15.855 20.2542 18.5 21.0002C21.145 20.2542 23 17.5753 23 14.5003V14.1723C23 13.6913 22.759 13.2522 22.378 13.0372Z" fill="#75AFFF"/>
<path d="M5.25 10C5.25 9.586 5.586 9.25 6 9.25H13C13.414 9.25 13.75 9.586 13.75 10C13.75 10.414 13.414 10.75 13 10.75H6C5.586 10.75 5.25 10.414 5.25 10ZM9 12.25H6C5.586 12.25 5.25 12.586 5.25 13C5.25 13.414 5.586 13.75 6 13.75H9C9.414 13.75 9.75 13.414 9.75 13C9.75 12.586 9.414 12.25 9 12.25ZM6 7.75H13C13.414 7.75 13.75 7.414 13.75 7C13.75 6.586 13.414 6.25 13 6.25H6C5.586 6.25 5.25 6.586 5.25 7C5.25 7.414 5.586 7.75 6 7.75ZM16.125 15H17.625C17.901 15 18.125 14.776 18.125 14.5C18.125 14.224 17.901 14 17.625 14H17V13.5C17 13.224 16.776 13 16.5 13C16.224 13 16 13.224 16 13.5V14.025C15.372 14.091 14.875 14.605 14.875 15.25C14.875 15.939 15.436 16.5 16.125 16.5H16.875C17.013 16.5 17.125 16.612 17.125 16.75C17.125 16.888 17.013 17 16.875 17H15.375C15.099 17 14.875 17.224 14.875 17.5C14.875 17.776 15.099 18 15.375 18H16V18.5C16 18.776 16.224 19 16.5 19C16.776 19 17 18.776 17 18.5V17.975C17.628 17.909 18.125 17.395 18.125 16.75C18.125 16.061 17.564 15.5 16.875 15.5H16.125C15.987 15.5 15.875 15.388 15.875 15.25C15.875 15.112 15.987 15 16.125 15ZM21.75 14.172V14.5C21.75 17.915 19.675 20.884 16.704 21.722C16.638 21.741 16.569 21.75 16.5 21.75C16.431 21.75 16.363 21.741 16.296 21.722C15.552 21.512 14.865 21.169 14.252 20.718C14.167 20.726 14.088 20.75 14 20.75H5C3.483 20.75 2.25 19.517 2.25 18V5C2.25 3.483 3.483 2.25 5 2.25H14C15.517 2.25 16.75 3.483 16.75 5V10.282C16.964 10.313 17.175 10.37 17.371 10.48L20.746 12.383C21.365 12.732 21.75 13.417 21.75 14.171V14.172ZM5 19.25H12.801C11.83 17.948 11.25 16.29 11.25 14.5V14.172C11.25 13.418 11.635 12.733 12.254 12.384L15.25 10.694V5C15.25 4.311 14.689 3.75 14 3.75H5C4.311 3.75 3.75 4.311 3.75 5V18C3.75 18.689 4.311 19.25 5 19.25ZM20.25 14.172C20.25 13.965 20.153 13.772 20.01 13.691L16.635 11.788C16.592 11.763 16.546 11.751 16.501 11.751C16.456 11.751 16.41 11.763 16.366 11.788L12.991 13.691C12.847 13.772 12.75 13.965 12.75 14.172V14.5C12.75 17.165 14.282 19.482 16.5 20.216C18.718 19.482 20.25 17.165 20.25 14.5V14.172Z" fill="#112D55"/>
</svg>
